<?xml version="1.0" encoding="UTF-8"?>
<svg width="789px" height="278px" viewBox="0 0 789 278" version="1.1" xmlns="http://www.w3.org/2000/svg" xmlns:xlink="http://www.w3.org/1999/xlink">
    <!-- Generator: Sketch 50 (54983) - http://www.bohemiancoding.com/sketch -->
    <title>Slice</title>
    <desc>Created with Sketch.</desc>
    <defs>
        <path d="M541,182.5 L541,184.5" id="path-1"></path>
    </defs>
    <g id="Page-1" stroke="none" stroke-width="1" fill="none" fill-rule="evenodd">
        <rect id="Rectangle" stroke="#CCFAFB" fill="#CCFAFB" x="1.5" y="0.5" width="788" height="277"></rect>
        <path d="M572.5,81.5 L574,83" id="Line" stroke="#979797" stroke-linecap="square"></path>
        <path d="M340.5,117.5 C342.5,100.166667 336,91.1666667 321,90.5 C308.333333,90.5 301.333333,97.1666667 300,110.5 C300.666667,121.166667 305.333333,128 314,131 C318.666667,132.333333 323,132.333333 327,131 C323.333333,127 321.5,125 321.5,125 C320.833333,123.666667 321,122.666667 322,122 C325.666667,118.333333 327.5,116.5 327.5,116.5 C328.833333,115.5 330,115.5 331,116.5 C344.333333,129.5 351,136 351,136 C351.666667,137.666667 351.5,139 350.5,140 C347.166667,144 345.5,146 345.5,146 C343.833333,146.666667 342.666667,146.5 342,145.5 C339.333333,143.166667 338,142 338,142 C337,140.666667 336,140.5 335,141.5 C323.333333,146.833333 311.666667,145.833333 300,138.5 C290.666667,130.833333 286.333333,120.666667 287,108 C288.333333,94.3333333 295.833333,84.6666667 309.5,79 C322.166667,75.6666667 333.5,77.8333333 343.5,85.5 C349.5,90.8333333 353,98.6666667 354,109 C354.333333,113.666667 353.666667,118.5 352,123.5 C351,126.166667 348.833333,126.166667 345.5,123.5 C342.833333,121.166667 341.333333,119.833333 341,119.5 C340.5,119 340.5,117.5 340.5,117.5 Z" id="Path" stroke="#000000" fill="#000000"></path>
        <path d="M388,82.5 C388.666667,77.8333333 386.5,76.5 381.5,78.5 C370.5,83.1666667 364,90 362,99 C358.666667,110.333333 359.5,120.166667 364.5,128.5 C368.166667,134.833333 374,139.666667 382,143 C386.666667,144.666667 388.833333,143.5 388.5,139.5 C388.5,136.166667 388.5,134.5 388.5,134.5 C388.833333,131.833333 387.666667,130.333333 385,130 C378.666667,127.333333 374.833333,122.833333 373.5,116.5 C372.166667,108.833333 373.5,102.166667 377.5,96.5 C380.166667,93.5 383,91.5 386,90.5 C387.333333,89.8333333 388,88.8333333 388,87.5 C388,85.5 388,82.5 388,82.5 Z" id="Path-2" stroke="#000000" fill="#000000"></path>
        <path d="M421.5,96.5 C418.5,86.5 410.666667,80 398,77 C395,76.6666667 393.666667,78.3333333 394,82 C394,85 394,86.5 394,86.5 C394.333333,88.1666667 395.666667,89.3333333 398,90 C402.666667,91 406.333333,94.3333333 409,100 C410.666667,101.333333 412.833333,101.833333 415.5,101.5 L419,101.5 C420.443319,101.613362 421.276652,101.446696 421.5,101 C422.367195,99.2656107 421.5,96.5 421.5,96.5 Z" id="Path-3" stroke="#000000" fill="#000000"></path>
        <path d="M408,123 C409,120 410.666667,118.666667 413,119 L418,119 C421.333333,118.666667 422.5,120.666667 421.5,125 C417.166667,135.333333 409.833333,141.5 399.5,143.5 C395.833333,144.166667 393.833333,142.833333 393.5,139.5 L393.5,134 C394.166667,131.666667 395.833333,130.5 398.5,130.5 C401.166667,130.5 404.333333,128 408,123 Z" id="Path-4" stroke="#000000" fill="#000000"></path>
        <path d="M456.5,77 C472.833333,77 481,77 481,77 C490.666667,77.3333333 497.333333,81.1666667 501,88.5 C503.333333,97.5 502,104.333333 497,109 C502.333333,111.666667 505.166667,117 505.5,125 C504.833333,135 499.333333,140.833333 489,142.5 C466.666667,142.833333 455.5,143 455.5,143 C452.166667,143 450.5,141.5 450.5,138.5 C450.5,134 450.5,135 450.5,135 C450.166667,131.333333 451.666667,129.666667 455,130 C458.333333,130.333333 468,130.333333 484,130 C490,129.666667 492.833333,127.5 492.5,123.5 C492.166667,119.5 489.333333,117.166667 484,116.5 L456.5,116.5 C452.5,116.833333 450.5,115.333333 450.5,112 C450.5,108.666667 450.5,107.333333 450.5,108 C450.166667,105 451.666667,103.5 455,103.5 C458.333333,103.5 467.333333,103.5 482,103.5 C486.666667,103.166667 489,100.833333 489,96.5 C488.333333,91.8333333 485.666667,89.6666667 481,90 C476.333333,90.3333333 468.166667,90.3333333 456.5,90 C452.5,90 450.5,88.3333333 450.5,85 C450.5,81.6666667 450.5,80.1666667 450.5,80.5 C450.5,78.1666667 452.166667,77 455.5,77 C458.833333,77 459.166667,77 456.5,77 Z" id="Path-5" stroke="#000000" fill="#000000"></path>
        <path d="M522,77 L540,103.5 L558,77 C564.333333,77 567.5,77 567.5,77 C570.166667,77.6666667 571.166667,79.5 570.5,82.5 L547,116.5 C547,130.833333 547,138 547,138 C546.666667,140.666667 545.166667,142 542.5,142 C538.833333,142 537,142 537,142 C534.666667,142 533.5,140.666667 533.5,138 C533.5,135.333333 533.5,128.166667 533.5,116.5 C517.833333,93.8333333 510,82.5 510,82.5 C508.666667,79.8333333 509.166667,78 511.5,77 L521,77 L522,77 Z" id="Path-6" stroke="#000000" fill="#000000"></path>
        <path d="M572.5,83 C571.833333,79 573.666667,77.1666667 578,77.5 L620.5,77.5 C624.5,77.1666667 626.5,78.6666667 626.5,82 L626.5,88 C626.166667,89.3333333 624.833333,90 622.5,90 L606.5,90 C606.5,121.666667 606.5,137.5 606.5,137.5 C606.5,140.5 604.833333,142 601.5,142 C598.166667,142 596.833333,142 597.5,142 C594.5,142.333333 593,141.166667 593,138.5 C593,135.833333 593,119.666667 593,90 C581.666667,90 576,90 576,90 C573.333333,89.6666667 572.166667,88.5 572.5,86.5 C572.833333,84.5 572.833333,83.3333333 572.5,83 Z" id="Path-7" stroke="#000000" fill="#000000"></path>
        <path d="M572.4,82.5 L572.4,86.5" id="Line-2" stroke="#000000" stroke-linecap="square"></path>
        <path d="M678.5,77.5 C682.166667,77.5 684,78.8333333 684,81.5 C684,85.5 684,86.5 684,86.5 C684,88.8333333 682.666667,90 680,90 C677.333333,90 666.666667,90 648,90 L648,103 C667,103 676.5,103 676.5,103 C678.833333,103.333333 680,105 680,108 C680,111 680,112.166667 680,111.5 C680.333333,114.833333 679.166667,116.5 676.5,116.5 C673.833333,116.5 664.333333,116.5 648,116.5 L648,129.5 L678.5,129.5 C682.166667,129.5 684,131.166667 684,134.5 C684,137.833333 684,139 684,138 C684.333333,140.666667 683,142 680,142 C677,142 663.5,142 639.5,142 C636.166667,141.666667 634.5,140 634.5,137 C634.5,134 634.5,116 634.5,83 C634.166667,79.3333333 635.833333,77.5 639.5,77.5 C643.166667,77.5 655.833333,77.5 677.5,77.5 C678.166667,77.5 678.5,77.5 678.5,77.5 Z" id="Path-8" stroke="#000000" fill="#000000"></path>
        <path d="M744,95.5 C744.333333,98.5 743.166667,100 740.5,100 C736.5,100 735,100 735,100 C732.666667,100 731.333333,98.8333333 731,96.5 C728.666667,91.8333333 724.5,89.5 718.5,89.5 C710.5,89.5 706,91.5 705,95.5 C703.5,101.5 721.527778,104 721.527778,104 C733.509259,106.666667 741,111 744,117 C747,124 745.833333,130.5 740.5,136.5 C736.166667,141.5 729.333333,144 720,144 C711.666667,143.666667 705.333333,142.333333 701,140 C694.5,136.5 691.5,131 690.5,123 C690.166667,120 691.833333,118.833333 695.5,119.5 L699,119.5 C702,119.166667 703.5,120.166667 703.5,122.5 C703.833333,125.833333 705.333333,128 708,129 C712,130.5 711.5,131 723,131 C729,130.666667 732.166667,128.5 732.5,124.5 C732.5,121.5 730.333333,119.666667 726,119 C722.333333,117.666667 717.666667,116.333333 712,115 C701.666667,112 695.5,108.166667 693.5,103.5 C691.833333,100.833333 691.666667,96.3333333 693,90 C694.333333,86.6666667 696,84.5 698,83.5 C698.791019,83.1044906 701.250962,80.5624347 706,79 C710.627886,77.4774242 717.483735,76.9139352 723,78 C727.583017,78.9023231 732.923515,80.4179458 736.5,83.5 C740.954853,87.3389919 743.202286,92.9739061 744,95.5 Z" id="Path-9" stroke="#000000" fill="#000000"></path>
        <polygon id="Path-10" stroke="#000000" fill="#000000" points="297 175 297 195 309 195 309 192 300 192 300 175 298 175"></polygon>
        <polygon id="Path-10" stroke="#000000" fill="#000000" points="368 175 368 195 380 195 380 192 371 192 371 175 369 175"></polygon>
        <polygon id="Path-12" stroke="#000000" fill="#000000" points="328.5 175 332 175 337.5 191 343.5 175 347 175 339.5 195 336 195"></polygon>
        <polygon id="Path-11" stroke="#000000" fill="#000000" points="326 175 314 175 314 195 326.5 195 326.5 192.5 317 192.5 317 186.5 317 186 324 186 324 184 324 183.5 317 183.5 317 177.5 326 177.5 326 175.5"></polygon>
        <polygon id="Path-11" stroke="#000000" fill="#000000" points="362 175 350 175 350 195 362.5 195 362.5 192.5 353 192.5 353 186.5 353 186 360 186 360 184 360 183.5 353 183.5 353 177.5 362 177.5 362 175.5"></polygon>
        <polygon id="Path-11" stroke="#000000" fill="#000000" points="585 175 573 175 573 195 585.5 195 585.5 192.5 576 192.5 576 186.5 576 186 583 186 583 184 583 183.5 576 183.5 576 177.5 585 177.5 585 175.5"></polygon>
        <polygon id="Path-11" stroke="#000000" fill="#000000" points="696 175 684 175 684 195 696.5 195 696.5 192.5 687 192.5 687 186.5 687 186 694 186 694 184 694 183.5 687 183.5 687 177.5 696 177.5 696 175.5"></polygon>
        <polygon id="Path-13" stroke="#000000" fill="#000000" points="385 175 388.5 175 388.5 195 385 195"></polygon>
        <polygon id="Path-13" stroke="#000000" fill="#000000" points="624 175 627.5 175 627.5 195 624 195"></polygon>
        <polygon id="Path-14" stroke="#000000" fill="#000000" points="395 175 398.5 175 406.5 189.5 406.5 175 409.5 175 410 175 410 195 406 195 398.5 180.5 398.5 195 395 195"></polygon>
        <polygon id="Path-14" stroke="#000000" fill="#000000" points="589 175 592.5 175 600.5 189.5 600.5 175 603.5 175 604 175 604 195 600 195 592.5 180.5 592.5 195 589 195"></polygon>
        <polygon id="Path-14" stroke="#000000" fill="#000000" points="633 175 636.5 175 644.5 189.5 644.5 175 647.5 175 648 175 648 195 644 195 636.5 180.5 636.5 195 633 195"></polygon>
        <polygon id="Path-15" stroke="#000000" fill="#000000" points="431 182.5 431 178 427.5 175 420 175 416.5 178 416.5 191.5 419.5 195 427.5 195 431 192 431 185 424.5 185 423.75 185 423.75 188 428 188 428 190.5 426.5 192 421.5 192 419.5 190 419.5 180.5 419.5 179.5 421 178 426 178 427.5 179 428 179.5 428 182.5 430.5 182.5"></polygon>
        <polygon id="Path-15" stroke="#000000" fill="#000000" points="714.5 182.5 714.5 178 711 175 703.5 175 700 178 700 191.5 703 195 711 195 714.5 192 714.5 188.5 711.5 188.5 711.5 190.5 710 192 705 192 703 190 703 180.5 703 179.5 704.5 178 709.5 178 711 179 711.5 179.5 711.5 182.5 714 182.5"></polygon>
        <polygon id="Path-15" stroke="#000000" fill="#000000" points="542.5 182.5 542.5 178 539 175 531.5 175 528 178 528 191.5 531 195 539 195 542.5 192 542.5 185 539 185 539.5 185 539.5 188 539.5 190.5 538 192 533 192 531 190 531 180.5 531 179.5 532.5 178 537.5 178 539 179 539.5 179.5 539.5 182.5 542 182.5"></polygon>
        <path d="M430.25,182.5 L430.75,182.5" id="Line-3" stroke="#000000" stroke-linecap="square"></path>
        <g id="Line-4" stroke-linecap="square" stroke="#000000">
            <use stroke-width="1" xlink:href="#path-1"></use>
            <use stroke-width="4" xlink:href="#path-1"></use>
        </g>
        <polygon id="Path-16" stroke="#000000" fill="#000000" points="448.5 175 452 175 452 190 453.5 192 458 192 460 190 460 175 463 175 463.5 175 463.5 191 460 195 452 195 448 191 448 175"></polygon>
        <polygon id="Path-17" stroke="#000000" points="470 195 470 175 479 175 479.5 175 483 178.5 483 183 479.5 187 473 187 473 194.5 473 195"></polygon>
        <polygon id="Path-18" stroke="#000000" points="473 178 478.5 178 480 180 480 182 478.5 183.5 473 183.5"></polygon>
        <path d="M470.5,176.5 L479.5,176.5" id="Line-5" stroke="#000000" stroke-width="2" stroke-linecap="square"></path>
        <path d="M477.5,177.5 C479.337652,177.48676 480.670985,177.98676 481.5,179 C482.329015,180.01324 481.829015,181.679907 480,184" id="Line-5" stroke="#000000" stroke-width="2" stroke-linecap="square"></path>
        <path d="M479.5,176.5 L481.5,177.5" id="Line-6" stroke="#000000" stroke-linecap="square"></path>
        <path d="M482.5,182.5 L480.5,185.5" id="Line-7" stroke="#000000" stroke-linecap="square"></path>
        <path d="M482.5,182.5 L480.5,185.5" id="Line-7" stroke="#000000" stroke-linecap="square"></path>
        <path d="M479.5,177.5 L481,179" id="Line-8" stroke="#000000" stroke-linecap="square"></path>
        <path d="M479.5,178.5 L481.5,181.5" id="Line-9" stroke="#000000" stroke-linecap="square"></path>
        <path d="M480.5,179.5 L480.5,181.5" id="Line-10" stroke="#000000" stroke-linecap="square"></path>
        <path d="M470.5,184.5 L479.5,184.5" id="Line-5" stroke="#000000" stroke-width="2" stroke-linecap="square"></path>
        <path d="M470.5,185.5 L479.5,185.5" id="Line-5" stroke="#000000" stroke-width="2" stroke-linecap="square"></path>
        <path d="M471,176 L471,194" id="Line-5" stroke="#000000" stroke-width="3" stroke-linecap="square"></path>
        <polygon id="Path-19" stroke="#000000" fill="#000000" points="511.5 175 513 175 516.5 191.5 521 175 524.5 175 525 175 518.5 195 514.5 195 511.5 179.5 508 195 504 195 498 175 501.5 175 506 191.5 509.5 175 511 175"></polygon>
        <polygon id="Path-20" stroke="#000000" fill="#000000" points="547.5 195 547.5 175 551 175 557 186.5 563.5 175 567 175 567 195 563.5 195 563.5 180 558.5 190 555.5 190 551 180 551 195 548 195"></polygon>
        <polygon id="Path-21" stroke="#000000" fill="#000000" points="664 175 679 175 679 178 673 178 673 195 670 195 670 178 664 178 664 175.5"></polygon>
        <polygon id="Path-22" stroke="#000000" fill="#000000" points="723 175 723 183.5 731 183.5 731 175 734.5 175 734.5 195 731 195 731 186.5 723 186.5 723 195 720 195 720 175"></polygon>
        <g id="Group-2" transform="translate(44.000000, 27.000000)">
            <circle id="Oval" stroke="#000000" stroke-width="4" fill="#000000" cx="112" cy="112" r="112"></circle>
            <g id="Group" transform="translate(42.000000, 73.000000)" fill="#CCFAFB" fill-rule="nonzero">
                <path d="M104.00116,39.4484271 L135.489934,3.18862669 C136.703229,1.79149856 139,2.64958034 139,4.5 L139,66.5 C139,67.6045695 138.104569,68.5 137,68.5 L2.5,68.5 C1.3954305,68.5 0.5,67.6045695 0.5,66.5 L0.5,3 C0.5,1.14524683 2.8058156,0.289541339 4.01580111,1.6952598 L36.4830151,39.4145231 L68.2199265,1.71202674 C69.0114487,0.771722153 70.4558655,0.761153408 71.2610626,1.68977486 L104.00116,39.4484271 Z M4.5,8.38927384 L4.5,64.5 L135,64.5 L135,9.85326777 L105.510066,43.8113733 C104.712308,44.7300044 103.285998,44.7294624 102.488937,43.8102251 L69.7725281,6.0788918 L38.0300735,43.7879733 C37.236664,44.7305199 35.7879371,44.7384948 34.9841989,43.8047402 L4.5,8.38927384 Z" id="Path-23"></path>
                <polygon id="Path-24" points="67.5 4 71.5 4 71.5 66 67.5 66"></polygon>
                <polygon id="Path-24" points="74 10 78 10 78 66 74 66"></polygon>
                <polygon id="Path-24" points="80 17 84 17 84 66 80 66"></polygon>
                <polygon id="Path-24" points="80 17 84 17 84 66 80 66"></polygon>
                <polygon id="Path-24" points="80 17 84 17 84 66 80 66"></polygon>
                <polygon id="Path-24" points="86 24 90 24 90 66 86 66"></polygon>
                <polygon id="Path-24" points="92 30 96 30 96 66 92 66"></polygon>
                <polygon id="Path-24" points="98 37 102 37 102 66 98 66"></polygon>
                <polygon id="Path-24" points="104 39 108 39 108 66 104 66"></polygon>
                <polygon id="Path-24" points="110 33 114 33 114 66 110 66"></polygon>
                <polygon id="Path-24" points="116 27 120 27 120 66 116 66"></polygon>
                <polygon id="Path-24" points="122 19 126 19 126 66 122 66"></polygon>
                <polygon id="Path-24" points="128 13 132 13 132 65 128 65"></polygon>
            </g>
        </g>
    </g>
</svg>