<svg width="789" height="278" xmlns="http://www.w3.org/2000/svg" xmlns:xlink="http://www.w3.org/1999/xlink"><defs><path d="M541 182.5v2" id="a"/></defs><g fill="none" fill-rule="evenodd"><path stroke="#CCFAFB" fill="#CCFAFB" d="M1.5.5h788v277H1.5z"/><path d="M572.5 81.5L574 83" stroke="#979797" stroke-linecap="square"/><path d="M340.5 117.5c2-17.333-4.5-26.333-19.5-27-12.667 0-19.667 6.667-21 20 .667 10.667 5.333 17.5 14 20.5 4.667 1.333 9 1.333 13 0l-5.5-6c-.667-1.333-.5-2.333.5-3l5.5-5.5c1.333-1 2.5-1 3.5 0l20 19.5c.667 1.667.5 3-.5 4l-5 6c-1.667.667-2.833.5-3.5-.5l-4-3.5c-1-1.333-2-1.5-3-.5-11.667 5.333-23.333 4.333-35-3-9.333-7.667-13.667-17.833-13-30.5 1.333-13.667 8.833-23.333 22.5-29 12.667-3.333 24-1.167 34 6.5 6 5.333 9.5 13.167 10.5 23.5.333 4.667-.333 9.5-2 14.5-1 2.667-3.167 2.667-6.5 0-2.667-2.333-4.167-3.667-4.5-4-.5-.5-.5-2-.5-2zm47.5-35c.667-4.667-1.5-6-6.5-4C370.5 83.167 364 90 362 99c-3.333 11.333-2.5 21.167 2.5 29.5 3.667 6.333 9.5 11.167 17.5 14.5 4.667 1.667 6.833.5 6.5-3.5v-5c.333-2.667-.833-4.167-3.5-4.5-6.333-2.667-10.167-7.167-11.5-13.5-1.333-7.667 0-14.333 4-20 2.667-3 5.5-5 8.5-6 1.333-.667 2-1.667 2-3v-5zm33.5 14c-3-10-10.833-16.5-23.5-19.5-3-.333-4.333 1.333-4 5v4.5c.333 1.667 1.667 2.833 4 3.5 4.667 1 8.333 4.333 11 10 1.667 1.333 3.833 1.833 6.5 1.5h3.5c1.443.113 2.277-.053 2.5-.5.867-1.734 0-4.5 0-4.5zM408 123c1-3 2.667-4.333 5-4h5c3.333-.333 4.5 1.667 3.5 6-4.333 10.333-11.667 16.5-22 18.5-3.667.667-5.667-.667-6-4V134c.667-2.333 2.333-3.5 5-3.5s5.833-2.5 9.5-7.5zm48.5-46H481c9.667.333 16.333 4.167 20 11.5 2.333 9 1 15.833-4 20.5 5.333 2.667 8.167 8 8.5 16-.667 10-6.167 15.833-16.5 17.5l-33.5.5c-3.333 0-5-1.5-5-4.5V135c-.333-3.667 1.167-5.333 4.5-5 3.333.333 13 .333 29 0 6-.333 8.833-2.5 8.5-6.5-.333-4-3.167-6.333-8.5-7h-27.5c-4 .333-6-1.167-6-4.5v-4c-.333-3 1.167-4.5 4.5-4.5h27c4.667-.333 7-2.667 7-7-.667-4.667-3.333-6.833-8-6.5-4.667.333-12.833.333-24.5 0-4 0-6-1.667-6-5v-4.5c0-2.333 1.667-3.5 5-3.5h1zm65.5 0l18 26.5L558 77h9.5c2.667.667 3.667 2.5 3 5.5l-23.5 34V138c-.333 2.667-1.833 4-4.5 4H537c-2.333 0-3.5-1.333-3.5-4v-21.5l-23.5-34c-1.333-2.667-.833-4.5 1.5-5.5H522zm50.5 6c-.667-4 1.167-5.833 5.5-5.5h42.5c4-.333 6 1.167 6 4.5v6c-.333 1.333-1.667 2-4 2h-16v47.5c0 3-1.667 4.5-5 4.5h-4c-3 .333-4.5-.833-4.5-3.5V90h-17c-2.667-.333-3.833-1.5-3.5-3.5.333-2 .333-3.167 0-3.5z" stroke="#000" fill="#000"/><path d="M572.4 82.5v4" stroke="#000" stroke-linecap="square"/><path d="M678.5 77.5c3.667 0 5.5 1.333 5.5 4v5c0 2.333-1.333 3.5-4 3.5h-32v13h28.5c2.333.333 3.5 2 3.5 5v3.5c.333 3.333-.833 5-3.5 5H648v13h30.5c3.667 0 5.5 1.667 5.5 5v3.5c.333 2.667-1 4-4 4h-40.5c-3.333-.333-5-2-5-5V83c-.333-3.667 1.333-5.5 5-5.5h39zm65.5 18c.333 3-.833 4.5-3.5 4.5H735c-2.333 0-3.667-1.167-4-3.5-2.333-4.667-6.5-7-12.5-7-8 0-12.5 2-13.5 6-1.5 6 16.528 8.5 16.528 8.5 11.981 2.667 19.472 7 22.472 13 3 7 1.833 13.5-3.5 19.5-4.333 5-11.167 7.5-20.5 7.5-8.333-.333-14.667-1.667-19-4-6.5-3.5-9.5-9-10.5-17-.333-3 1.333-4.167 5-3.5h3.5c3-.333 4.5.667 4.5 3 .333 3.333 1.833 5.5 4.5 6.5 4 1.5 3.5 2 15 2 6-.333 9.167-2.5 9.5-6.5 0-3-2.167-4.833-6.5-5.5-3.667-1.333-8.333-2.667-14-4-10.333-3-16.5-6.833-18.5-11.5-1.667-2.667-1.833-7.167-.5-13.5 1.333-3.333 3-5.5 5-6.5.791-.396 3.251-2.938 8-4.5 4.628-1.523 11.484-2.086 17-1 4.583.902 9.924 2.418 13.5 5.5 4.455 3.839 6.702 9.474 7.5 12zM297 175v20h12v-3h-9v-17h-2zm71 0v20h12v-3h-9v-17h-2zm-39.5 0h3.5l5.5 16 6-16h3.5l-7.5 20H336zm-2.5 0h-12v20h12.5v-2.5H317V186h7v-2.5h-7v-6h9v-2zm36 0h-12v20h12.5v-2.5H353V186h7v-2.5h-7v-6h9v-2zm223 0h-12v20h12.5v-2.5H576V186h7v-2.5h-7v-6h9v-2zm111 0h-12v20h12.5v-2.5H687V186h7v-2.5h-7v-6h9v-2zm-311 0h3.5v20H385zm239 0h3.5v20H624zm-229 0h3.5l8 14.5V175h3.5v20h-4l-7.5-14.5V195H395zm194 0h3.5l8 14.5V175h3.5v20h-4l-7.5-14.5V195H589zm44 0h3.5l8 14.5V175h3.5v20h-4l-7.5-14.5V195H633zm-202 7.5V178l-3.5-3H420l-3.5 3v13.5l3 3.5h8l3.5-3v-7h-7.25v3H428v2.5l-1.5 1.5h-5l-2-2v-10.5l1.5-1.5h5l1.5 1 .5.5v3h2.5zm283.5 0V178l-3.5-3h-7.5l-3.5 3v13.5l3 3.5h8l3.5-3v-3.5h-3v2L710 192h-5l-2-2v-10.5l1.5-1.5h5l1.5 1 .5.5v3h2.5zm-172 0V178l-3.5-3h-7.5l-3.5 3v13.5l3 3.5h8l3.5-3v-7H539h.5v5.5L538 192h-5l-2-2v-10.5l1.5-1.5h5l1.5 1 .5.5v3h2.5z" stroke="#000" fill="#000"/><path d="M430.25 182.5h.5" stroke="#000" stroke-linecap="square"/><g stroke-linecap="square" stroke="#000"><use xlink:href="#a"/><use stroke-width="4" xlink:href="#a"/></g><path stroke="#000" fill="#000" d="M448.5 175h3.5v15l1.5 2h4.5l2-2v-15h3.5v16l-3.5 4h-8l-4-4v-16z"/><path stroke="#000" d="M470 195v-20h9.5l3.5 3.5v4.5l-3.5 4H473v8z"/><path stroke="#000" d="M473 178h5.5l1.5 2v2l-1.5 1.5H473z"/><path d="M470.5 176.5h9m-2 1c1.838-.013 3.171.487 4 1.5.829 1.013.329 2.68-1.5 5" stroke="#000" stroke-width="2" stroke-linecap="square"/><path d="M479.5 176.5l2 1m1 5l-2 3m2-3l-2 3m-1-8l1.5 1.5m-1.5-.5l2 3m-1-2v2" stroke="#000" stroke-linecap="square"/><path d="M470.5 184.5h9m-9 1h9" stroke="#000" stroke-width="2" stroke-linecap="square"/><path d="M471 176v18" stroke="#000" stroke-width="3" stroke-linecap="square"/><path stroke="#000" fill="#000" d="M511.5 175h1.5l3.5 16.5L521 175h4l-6.5 20h-4l-3-15.5L508 195h-4l-6-20h3.5l4.5 16.5 3.5-16.5h1.5zm36 20v-20h3.5l6 11.5 6.5-11.5h3.5v20h-3.5v-15l-5 10h-3l-4.5-10v15h-3zM664 175h15v3h-6v17h-3v-17h-6v-2.5zm59 0v8.5h8V175h3.5v20H731v-8.5h-8v8.5h-3v-20z"/><g transform="translate(44 27)"><circle stroke="#000" stroke-width="4" fill="#000" cx="112" cy="112" r="112"/><g fill="#CCFAFB" fill-rule="nonzero"><path d="M146.001 112.448l31.489-36.26c1.213-1.397 3.51-.538 3.51 1.312v62a2 2 0 0 1-2 2H44.5a2 2 0 0 1-2-2V76c0-1.855 2.306-2.71 3.516-1.305l32.467 37.72 31.737-37.703a2 2 0 0 1 3.041-.022l32.74 37.758zM46.5 81.39v56.11H177V82.853l-29.49 33.958a2 2 0 0 1-3.021 0l-32.716-37.732-31.743 37.709a2 2 0 0 1-3.046.017L46.5 81.389z"/><path d="M109.5 77h4v62h-4zm6.5 6h4v56h-4zm6 7h4v49h-4z"/><path d="M122 90h4v49h-4z"/><path d="M122 90h4v49h-4zm6 7h4v42h-4zm6 6h4v36h-4zm6 7h4v29h-4zm6 2h4v27h-4zm6-6h4v33h-4zm6-6h4v39h-4zm6-8h4v47h-4zm6-6h4v52h-4z"/></g></g></g></svg>